<svg width="50" height="26" viewBox="0 0 50 26" fill="none" xmlns="http://www.w3.org/2000/svg">
<path d="M46 24.5H50M46 24.5V13.3286L42 11.3571V24.5M46 24.5H42M42 24.5H38M38 24.5V19.9H34.6667M38 24.5H34.6667M34.6667 19.9V24.5M34.6667 19.9V11.3571L30.6667 8.72857V24.5M34.6667 24.5H30.6667M30.6667 24.5H27.3333M27.3333 24.5V1.5L22 2.81429V24.5M27.3333 24.5H22M22 24.5H18.6667M0 24.5H18.6667M18.6667 24.5V4.78571H14V10.7M14.6667 24.5V13.9857L10.6667 12.6714V24.5H6.66667V14.6429L3.33333 16.6143V24.5" stroke="black" stroke-width="2"/>
</svg>
