<svg width="40" height="40" viewBox="0 0 40 40" fill="none" xmlns="http://www.w3.org/2000/svg">
<path d="M4.06016 8.57834C3.3335 9.405 3.3335 10.825 3.3335 13.6617V29.3183C3.3335 31.3283 3.3335 32.3333 3.8585 33.09C4.38183 33.8467 5.2985 34.165 7.13183 34.8L9.2885 35.5483C10.4568 35.9533 11.3552 36.265 12.1102 36.465C12.6035 36.5967 13.0552 36.21 13.0552 35.7V10.45C13.0494 10.2476 12.9768 10.0528 12.8486 9.89601C12.7205 9.73922 12.544 9.62928 12.3468 9.58334C11.6985 9.41834 10.9185 9.14834 9.85016 8.77834C7.26183 7.88 5.96683 7.43167 4.9835 7.88667C4.63154 8.05146 4.31725 8.2869 4.06016 8.57834ZM21.0335 5.80167L18.4735 7.57667C17.5485 8.21834 16.8685 8.69 16.2902 9.025C16.1544 9.10178 16.041 9.2125 15.9609 9.34631C15.8809 9.48012 15.837 9.63244 15.8335 9.78834V34.8667C15.8335 35.4833 16.4735 35.87 16.9935 35.5367C17.5518 35.18 18.1918 34.7367 18.9668 34.2L21.5268 32.425C22.4518 31.7833 23.1318 31.3117 23.7102 30.9767C23.8459 30.8999 23.9593 30.7892 24.0394 30.6554C24.1194 30.5216 24.1634 30.3692 24.1668 30.2133V5.13334C24.1668 4.515 23.5268 4.13 23.0068 4.46167C22.4485 4.82 21.8085 5.26334 21.0335 5.80167ZM32.8668 5.2L30.7118 4.45334C29.5435 4.04834 28.6452 3.73667 27.8902 3.53667C27.3968 3.405 26.9452 3.79167 26.9452 4.30167V29.5517C26.9509 29.7541 27.0236 29.9489 27.1517 30.1057C27.2798 30.2625 27.4563 30.3724 27.6535 30.4183C28.3018 30.5833 29.0818 30.8517 30.1502 31.2233C32.7385 32.1217 34.0335 32.57 35.0168 32.115C35.3688 31.9502 35.6831 31.7148 35.9402 31.4233C36.6668 30.5967 36.6668 29.1767 36.6668 26.34V10.6833C36.6668 8.67334 36.6668 7.66667 36.1418 6.91167C35.6185 6.155 34.7018 5.83667 32.8685 5.20167" fill="#0095FF"/>
</svg>
