<svg width="41" height="40" viewBox="0 0 41 40" fill="none" xmlns="http://www.w3.org/2000/svg">
<path fill-rule="evenodd" clip-rule="evenodd" d="M7.28634 5.28666C5.33301 7.23833 5.33301 10.3817 5.33301 16.6667V23.3333C5.33301 29.6183 5.33301 32.7617 7.28634 34.7133C9.23967 36.665 12.3813 36.6667 18.6663 36.6667H21.9997C28.2847 36.6667 31.428 36.6667 33.3797 34.7133C35.3313 32.76 35.333 29.6183 35.333 23.3333V16.6667C35.333 10.3817 35.333 7.23833 33.3797 5.28666C31.4263 3.33499 28.2847 3.33333 21.9997 3.33333H18.6663C12.3813 3.33333 9.23801 3.33333 7.28634 5.28666ZM12.4163 13.3333C12.4163 13.0018 12.548 12.6839 12.7825 12.4494C13.0169 12.215 13.3348 12.0833 13.6663 12.0833H26.9997C27.3312 12.0833 27.6491 12.215 27.8836 12.4494C28.118 12.6839 28.2497 13.0018 28.2497 13.3333C28.2497 13.6648 28.118 13.9828 27.8836 14.2172C27.6491 14.4516 27.3312 14.5833 26.9997 14.5833H13.6663C13.3348 14.5833 13.0169 14.4516 12.7825 14.2172C12.548 13.9828 12.4163 13.6648 12.4163 13.3333ZM12.4163 20C12.4163 19.6685 12.548 19.3505 12.7825 19.1161C13.0169 18.8817 13.3348 18.75 13.6663 18.75H26.9997C27.3312 18.75 27.6491 18.8817 27.8836 19.1161C28.118 19.3505 28.2497 19.6685 28.2497 20C28.2497 20.3315 28.118 20.6495 27.8836 20.8839C27.6491 21.1183 27.3312 21.25 26.9997 21.25H13.6663C13.3348 21.25 13.0169 21.1183 12.7825 20.8839C12.548 20.6495 12.4163 20.3315 12.4163 20ZM13.6663 25.4167C13.3348 25.4167 13.0169 25.5484 12.7825 25.7828C12.548 26.0172 12.4163 26.3351 12.4163 26.6667C12.4163 26.9982 12.548 27.3161 12.7825 27.5505C13.0169 27.785 13.3348 27.9167 13.6663 27.9167H21.9997C22.3312 27.9167 22.6491 27.785 22.8836 27.5505C23.118 27.3161 23.2497 26.9982 23.2497 26.6667C23.2497 26.3351 23.118 26.0172 22.8836 25.7828C22.6491 25.5484 22.3312 25.4167 21.9997 25.4167H13.6663Z" fill="#757575"/>
</svg>
