<svg width="41" height="40" viewBox="0 0 41 40" fill="none" xmlns="http://www.w3.org/2000/svg">
<path d="M5.25832 24.5267L6.11999 27.7467C7.12666 31.505 7.63166 33.385 8.77332 34.6033C9.6744 35.5647 10.8401 36.2374 12.1233 36.5367C13.75 36.9167 15.63 36.4133 19.39 35.4067C23.1467 34.4 25.0267 33.8967 26.245 32.755C26.3461 32.6594 26.4439 32.5617 26.5383 32.4617C25.9707 32.4105 25.4065 32.327 24.8483 32.2117C23.6883 31.9817 22.31 31.6117 20.68 31.175L20.5017 31.1267L20.46 31.1167C18.6867 30.64 17.205 30.2433 16.0217 29.8167C14.7767 29.3667 13.6467 28.8117 12.685 27.9117C11.3622 26.6723 10.4365 25.0687 10.025 23.3033C9.72499 22.0217 9.81166 20.765 10.045 19.4633C10.2683 18.215 10.6683 16.7183 11.1483 14.9267L12.04 11.6033L12.07 11.4867C8.86999 12.3483 7.18499 12.8583 6.06166 13.91C5.09914 14.8118 4.42574 15.9788 4.12666 17.2633C3.74666 18.8883 4.24999 20.7683 5.25832 24.5267Z" fill="#737373"/>
<path fill-rule="evenodd" clip-rule="evenodd" d="M35.383 17.8583L34.5197 21.0783C33.5113 24.8367 33.008 26.7167 31.8663 27.935C30.9655 28.8969 29.7997 29.5703 28.5163 29.87C28.3552 29.9078 28.1913 29.9367 28.0247 29.9567C26.4997 30.145 24.638 29.6467 21.2513 28.74C17.493 27.7317 15.613 27.2283 14.3947 26.0867C13.4324 25.1854 12.7591 24.019 12.4597 22.735C12.0797 21.1083 12.583 19.23 13.5913 15.4717L14.453 12.2517L14.8597 10.7433C15.618 7.96667 16.128 6.43833 17.1063 5.39333C18.0074 4.432 19.1731 3.75923 20.4563 3.46C22.083 3.08 23.963 3.58333 27.723 4.59167C31.4797 5.59833 33.3597 6.10167 34.578 7.24167C35.5405 8.14342 36.2139 9.31042 36.513 10.595C36.893 12.2217 36.3897 14.1 35.383 17.8583ZM19.0847 16.3417C19.1272 16.1831 19.2006 16.0344 19.3006 15.9042C19.4006 15.774 19.5253 15.6647 19.6675 15.5827C19.8097 15.5007 19.9667 15.4475 20.1295 15.4261C20.2923 15.4048 20.4578 15.4157 20.6163 15.4583L28.6663 17.6167C28.8291 17.6553 28.9824 17.7261 29.1173 17.8251C29.2522 17.924 29.3658 18.049 29.4515 18.1927C29.5372 18.3363 29.5932 18.4957 29.6161 18.6614C29.6391 18.8271 29.6285 18.9957 29.5851 19.1573C29.5417 19.3188 29.4664 19.47 29.3635 19.6019C29.2606 19.7337 29.1322 19.8436 28.9861 19.925C28.84 20.0064 28.679 20.0576 28.5127 20.0757C28.3464 20.0937 28.1782 20.0782 28.018 20.03L19.968 17.8733C19.6481 17.7874 19.3754 17.578 19.2097 17.2911C19.0441 17.0042 18.9991 16.6617 19.0847 16.3417ZM17.7913 21.1733C17.8773 20.8534 18.0867 20.5807 18.3735 20.4151C18.6604 20.2494 19.0013 20.2045 19.3213 20.29L24.1513 21.585C24.3149 21.6227 24.4691 21.693 24.6049 21.7917C24.7407 21.8903 24.8552 22.0153 24.9417 22.1592C25.0281 22.303 25.0847 22.4628 25.1081 22.629C25.1314 22.7952 25.1211 22.9644 25.0776 23.1265C25.0342 23.2886 24.9585 23.4403 24.8552 23.5726C24.7519 23.7048 24.623 23.8149 24.4762 23.8963C24.3294 23.9776 24.1677 24.0286 24.0008 24.0461C23.8339 24.0637 23.6652 24.0474 23.5047 23.9983L18.6747 22.705C18.5161 22.6625 18.3674 22.5891 18.2372 22.4891C18.107 22.3891 17.9977 22.2644 17.9157 22.1222C17.8337 21.9799 17.7805 21.8229 17.7591 21.6601C17.7378 21.4973 17.7487 21.3319 17.7913 21.1733Z" fill="#737373"/>
</svg>
