<svg width="40" height="40" viewBox="0 0 40 40" fill="none" xmlns="http://www.w3.org/2000/svg">
<path fill-rule="evenodd" clip-rule="evenodd" d="M36.6663 20C36.6663 29.205 29.2047 36.6667 19.9997 36.6667C10.7947 36.6667 3.33301 29.205 3.33301 20C3.33301 10.795 10.7947 3.33333 19.9997 3.33333C29.2047 3.33333 36.6663 10.795 36.6663 20ZM24.9997 15C24.9997 16.3261 24.4729 17.5978 23.5352 18.5355C22.5975 19.4732 21.3258 20 19.9997 20C18.6736 20 17.4018 19.4732 16.4641 18.5355C15.5265 17.5978 14.9997 16.3261 14.9997 15C14.9997 13.6739 15.5265 12.4021 16.4641 11.4645C17.4018 10.5268 18.6736 10 19.9997 10C21.3258 10 22.5975 10.5268 23.5352 11.4645C24.4729 12.4021 24.9997 13.6739 24.9997 15ZM19.9997 34.1667C22.8601 34.1713 25.6543 33.3057 28.0113 31.685C29.018 30.9933 29.448 29.6767 28.8613 28.605C27.6497 26.3833 25.1497 25 19.9997 25C14.8497 25 12.3497 26.3833 11.1363 28.605C10.5513 29.6767 10.9813 30.9933 11.988 31.685C14.345 33.3057 17.1392 34.1713 19.9997 34.1667Z" fill="#737373"/>
</svg>
